<svg xmlns="http://www.w3.org/2000/svg" version="1.1" xmlns:xlink="http://www.w3.org/1999/xlink" width="200" height="200"><svg xmlns="http://www.w3.org/2000/svg" version="1.1" xmlns:xlink="http://www.w3.org/1999/xlink" width="200" height="200"><svg xmlns="http://www.w3.org/2000/svg" version="1.1" xmlns:xlink="http://www.w3.org/1999/xlink" viewBox="0 0 200 200"><rect width="200" height="200" fill="url('#gradient')"></rect><defs><linearGradient id="gradient" gradientTransform="rotate(45 0.5 0.5)"><stop offset="0%" stop-color="#f9f8f1"></stop><stop offset="100%" stop-color="#375263"></stop></linearGradient></defs><g><g fill="#375263" transform="matrix(3.0941749202618767,0,0,3.0941749202618767,7.435766900268121,122.00384077658404)" stroke="#53b3c8" stroke-width="0.2"><path d="M10.74-8.40L10.74-5.81Q10.74-2.93 9.45-1.37Q8.15 0.20 5.80 0.20L5.80 0.20Q3.43 0.20 2.13-1.38Q0.83-2.95 0.83-5.81L0.83-5.81L0.83-8.41Q0.83-11.29 2.12-12.85Q3.42-14.41 5.78-14.41Q8.14-14.41 9.44-12.84Q10.74-11.27 10.74-8.40L10.74-8.40ZM7.45-5.31L7.45-8.83Q7.45-10.36 7.05-11.12Q6.65-11.88 5.78-11.88L5.78-11.88Q4.93-11.88 4.55-11.17Q4.16-10.47 4.13-9.04L4.13-9.04L4.13-5.41Q4.13-3.82 4.53-3.08Q4.93-2.34 5.80-2.34L5.80-2.34Q6.64-2.34 7.04-3.06Q7.44-3.78 7.45-5.31L7.45-5.31ZM14.54-3.19L14.54-3.19Q15.32-3.19 15.84-2.73Q16.36-2.27 16.36-1.54Q16.36-0.82 15.84-0.36Q15.32 0.11 14.54 0.11L14.54 0.11Q13.75 0.11 13.24-0.36Q12.72-0.83 12.72-1.54Q12.72-2.26 13.24-2.72Q13.75-3.19 14.54-3.19ZM21.50-6.04L21.50-8.49L23.06-8.49Q24.90-8.49 24.90-10.29L24.90-10.29Q24.90-11.00 24.46-11.44Q24.02-11.88 23.22-11.88L23.22-11.88Q22.57-11.88 22.08-11.50Q21.60-11.12 21.60-10.56L21.60-10.56L18.31-10.56Q18.31-11.68 18.94-12.56Q19.56-13.44 20.67-13.93Q21.78-14.42 23.11-14.42L23.11-14.42Q25.48-14.42 26.84-13.34Q28.19-12.26 28.19-10.36L28.19-10.36Q28.19-9.44 27.63-8.63Q27.07-7.81 26.00-7.30L26.00-7.30Q27.13-6.89 27.77-6.06Q28.42-5.22 28.42-3.99L28.42-3.99Q28.42-2.09 26.95-0.95Q25.49 0.20 23.11 0.20L23.11 0.20Q21.71 0.20 20.51-0.34Q19.32-0.87 18.70-1.81Q18.09-2.75 18.09-3.96L18.09-3.96L21.40-3.96Q21.40-3.30 21.92-2.82Q22.45-2.34 23.22-2.34L23.22-2.34Q24.09-2.34 24.61-2.83Q25.13-3.31 25.13-4.06L25.13-4.06Q25.13-5.14 24.59-5.59Q24.05-6.04 23.11-6.04L23.11-6.04L21.50-6.04ZM30.28-14.22L34.79-14.22L37.96-4.33L41.12-14.22L45.63-14.22L45.63 0L42.20 0L42.20-3.32L42.53-10.12L39.09 0L36.83 0L33.38-10.13L33.71-3.32L33.71 0L30.28 0L30.28-14.22ZM53.43-4.82L51.24-4.82L51.24 0L47.81 0L47.81-14.22L53.49-14.22Q55.12-14.22 56.37-13.62Q57.63-13.02 58.32-11.91Q59.00-10.80 59.00-9.39L59.00-9.39Q59.00-7.31 57.51-6.07Q56.03-4.82 53.43-4.82L53.43-4.82ZM51.24-11.57L51.24-7.47L53.49-7.47Q54.48-7.47 55.00-7.97Q55.53-8.47 55.53-9.38L55.53-9.38Q55.53-10.37 54.99-10.97Q54.45-11.56 53.53-11.57L53.53-11.57L51.24-11.57Z"></path></g></g></svg></svg><style>@media (prefers-color-scheme: light) { :root { filter: none; } }
@media (prefers-color-scheme: dark) { :root { filter: none; } }
</style></svg>